<?xml version="1.0" encoding="utf-8"?>
<!-- Generator: Adobe Illustrator 13.0.0, SVG Export Plug-In  -->
<!DOCTYPE svg PUBLIC "-//W3C//DTD SVG 1.1//EN" "http://www.w3.org/Graphics/SVG/1.1/DTD/svg11.dtd" [
	<!ENTITY ns_flows "http://ns.adobe.com/Flows/1.0/">
]>
<svg version="1.1"
	 xmlns="http://www.w3.org/2000/svg" xmlns:xlink="http://www.w3.org/1999/xlink" xmlns:a="http://ns.adobe.com/AdobeSVGViewerExtensions/3.0/"
	 x="0px" y="0px" width="61px" height="61px" viewBox="-6.687 -9.393 61 61" enable-background="new -6.687 -9.393 61 61"
	 xml:space="preserve">
<defs>
</defs>
<path fill="#FFFFFF" d="M9.746,16.062c0.35,0,0.7-0.128,0.974-0.387l-0.001-0.002L22.275,4.704v25.698
	c0,0.783,0.635,1.414,1.416,1.414s1.415-0.631,1.415-1.414V4.704l11.556,10.968c0.567,0.538,1.463,0.515,2.001-0.05
	c0.537-0.567,0.514-1.463-0.054-2L24.666,0.384c-0.008-0.007-0.019-0.009-0.025-0.016c-0.123-0.111-0.264-0.203-0.419-0.266
	c-0.019-0.008-0.038-0.011-0.057-0.018C24.024,0.034,23.874,0.002,23.716,0c-0.02,0-0.037,0-0.057,0
	c-0.154,0.003-0.301,0.034-0.439,0.083c-0.021,0.008-0.043,0.011-0.064,0.02c-0.154,0.063-0.291,0.155-0.413,0.265
	c-0.008,0.007-0.019,0.009-0.026,0.017L8.77,13.62c-0.565,0.539-0.588,1.435-0.051,2.002C8.996,15.912,9.371,16.062,9.746,16.062z
	 M46.966,21.962c-0.264-0.262-0.631-0.414-1.002-0.414h-6.048c-0.781,0-1.412,0.635-1.412,1.416c0,0.779,0.631,1.414,1.412,1.414
	h4.631V37.14H2.83V24.378h4.776c0.781,0,1.415-0.635,1.415-1.414c0-0.781-0.634-1.416-1.415-1.416H1.418
	c-0.373,0-0.739,0.152-1.002,0.414C0.151,22.227,0,22.59,0,22.964v15.592c0,0.373,0.154,0.736,0.418,1
	c0.263,0.264,0.627,0.415,1,0.415h44.546c0.377,0,0.733-0.149,0.998-0.415c0.27-0.265,0.414-0.622,0.414-1V22.964
	C47.376,22.59,47.227,22.227,46.966,21.962z"/>
</svg>
